<?xml version="1.0" standalone="no"?>
<!DOCTYPE svg PUBLIC "-//W3C//DTD SVG 20010904//EN"
 "http://www.w3.org/TR/2001/REC-SVG-20010904/DTD/svg10.dtd">
<svg version="1.0" xmlns="http://www.w3.org/2000/svg"
 width="700.000000pt" height="700.000000pt" viewBox="0 0 700.000000 700.000000"
 preserveAspectRatio="xMidYMid meet">
<metadata>
Created by potrace 1.11, written by Peter Selinger 2001-2013
</metadata>
<g transform="translate(0.000000,700.000000) scale(0.100000,-0.100000)"
fill="#000000" stroke="none">
<path d="M630 6985 c-272 -55 -493 -246 -586 -507 -45 -127 -43 -8 -43 -2983
l0 -2810 23 -90 c30 -112 47 -152 103 -239 75 -116 202 -227 323 -283 25 -12
79 -32 120 -45 l75 -23 2850 0 2850 0 79 23 c104 30 186 71 270 134 148 112
255 283 291 471 21 108 21 5640 0 5738 -68 318 -296 546 -614 614 -95 20
-5641 20 -5741 0z"/>
</g>
</svg>
